# xmcd
#
# Track frame offsets: 
#        150
#        12409
#        26013
#        37299
#        50724
#        62499
#        76066
#        85581
#        97090
#        111023
#        123090
#        134744
#        146874
#        159204
#        170189
#        181987
#        196634
#        210226
#        222063
#        232879
#        244999
#        257389
#
# Disc length: 3565 seconds
#
# Revision: 0
# Processed by: cddbd v1.5.2PL0 Copyright (c) Steve Scherf et al.
# Submitted via: ExactAudioCopy v1.2
#
DISCID=2b0deb16
DTITLE=Various Artist - Gusto-King Top 10 Hits
DYEAR=2009
DGENRE=R&B
TTITLE0=Wynonie Harris - Good rockin' tonight
TTITLE1=Bull Moose Jackson - I love you, yes I do
TTITLE2=The Dominoes - Sixty inute man
TTITLE3=Ivory Joe Hunter - Guess Who
TTITLE4=Hank Ballard and The Midnighters - The twist
TTITLE5=Roy Brown and His Mighty, Mighty Men - Hard luck blues
TTITLE6=Boyd Bennett - Seventeen
TTITLE7=Earl Bostic - Flamingo
TTITLE8=Bill Doggett - Honky Tonk
TTITLE9=Tiny Bradshaw - Well, Oh Well
TTITLE10=The Charms - Hearts of Stone
TTITLE11=Little Willie John - Fever
TTITLE12=Annie Laurie - It hurts to be in love
TTITLE13=Hank Ballard and The Midnighters - Let's go, let's go, let's go
TTITLE14=Freddie King - Hide away
TTITLE15=Johnny "Guitar" Watson - Cuttin' in
TTITLE16=Bull Moose Jackson and His Buffalo Bearcats - Why don't you hau
TTITLE16=l off and love me
TTITLE17=Lucky Millinder - I'm waiting just for you
TTITLE18=The Dominoes - Have mercy baby
TTITLE19=The Midnighters - Annie had a baby
TTITLE20=The Midnighters - Work with me Annie
TTITLE21=Otis Williams and His Charms - Ivory Tower
EXTD=
EXTT0=
EXTT1=
EXTT2=
EXTT3=
EXTT4=
EXTT5=
EXTT6=
EXTT7=
EXTT8=
EXTT9=
EXTT10=
EXTT11=
EXTT12=
EXTT13=
EXTT14=
EXTT15=
EXTT16=
EXTT17=
EXTT18=
EXTT19=
EXTT20=
EXTT21=
PLAYORDER=
